<?xml version="1.0" encoding="UTF-8" standalone="no"?>
<!-- Created with Inkscape (http://www.inkscape.org/) -->

<svg
   width="194.22386mm"
   height="150.12115mm"
   viewBox="0 0 194.22387 150.12115"
   version="1.1"
   id="svg21"
   xml:space="preserve"
   xmlns="http://www.w3.org/2000/svg"
   xmlns:svg="http://www.w3.org/2000/svg"><defs
     id="defs18" /><g
     id="layer1"
     style="fill:#000000"
     transform="translate(-10.290988,-6.6270942)"><g
       aria-label="otawatomo+awenpi-__wile+unpa"
       id="text325"
       style="font-size:41.8066px;font-family:'linja sike 5';-inkscape-font-specification:'linja sike 5, ';display:inline;stroke-width:0.48992"><path
         d="m 84.446465,8.006712 v 14.172437 c 0,0.668905 0.543486,1.003358 1.045165,1.003358 0.501679,0 1.045165,-0.334453 1.045165,-1.003358 V 8.006712 c 0,-0.7107122 -0.543486,-1.045165 -1.045165,-1.045165 -0.501679,0 -1.045165,0.3344528 -1.045165,1.045165 z m 1.045165,28.177647 c 2.759236,0 4.974986,-2.215749 4.974986,-4.974985 0,-2.759235 -2.21575,-4.933178 -4.974986,-4.933178 -2.759235,0 -4.933178,2.173943 -4.933178,4.933178 0,2.759236 2.173943,4.974985 4.933178,4.974985 z m 0,-7.817833 c 1.588651,0 2.884656,1.254197 2.884656,2.842848 0,1.588651 -1.296005,2.884656 -2.884656,2.884656 -1.58865,0 -2.884655,-1.296005 -2.884655,-2.884656 0,-1.588651 1.296005,-2.842848 2.884655,-2.842848 z"
         id="path371" /><path
         d="m 118.35161,35.975326 c 0.25084,0.209033 0.79433,0.209033 0.79433,0.209033 h 5.97834 c 0.75252,0 1.12878,-0.543485 1.12878,-1.045165 0,-0.501679 -0.37626,-1.045164 -1.12878,-1.045164 h -4.47331 c 0,0 -0.54348,0 -0.79432,-0.209033 -0.25084,-0.209033 -0.29265,-0.585293 -0.29265,-0.585293 l -7.77603,-23.160856 c 0,0 -0.45987,-1.3378107 -1.50503,-1.3378107 -1.00336,0 -1.71407,1.4214247 -1.71407,1.4214247 L 96.48676,31.87828 c 0,0 -0.334453,0.418066 -0.25084,0.919745 0.08361,0.376259 0.501679,0.627099 0.501679,0.627099 2.09033,0.919745 4.222471,1.797684 6.270991,2.717429 0.20903,0.08361 0.41807,0.12542 0.58529,0.12542 0.6271,0 1.04517,-0.459873 1.04517,-1.003359 0,-0.376259 -0.20904,-0.794325 -0.75252,-1.045165 -1.37962,-0.627099 -2.80104,-1.212391 -4.222469,-1.797683 0,0 -0.668905,-0.334453 -0.668905,-0.585293 0,-0.334453 0.459872,-1.045165 0.459872,-1.045165 L 109.73945,12.312792 c 0,0 0.0836,-0.418066 0.41807,-0.334453 0.16722,0.04181 0.20903,0.418066 0.20903,0.418066 l 7.6088,22.826403 c 0,0 0.0836,0.501679 0.37626,0.752518 z"
         id="path368" /><path
         d="m 159.02936,36.184359 c 1.08697,0 1.12878,-1.086971 1.12878,-1.086971 V 20.799531 c 0,0 -0.0418,-0.961552 -0.71071,-1.588651 -2.5084,-2.382976 -12.37476,-11.5804274 -12.79282,-11.9984934 -0.50168,-0.4598726 -1.00336,-0.5852924 -1.42143,-0.5852924 -0.83613,0 -1.46323,0.5434858 -1.46323,0.5434858 l -12.91824,12.082107 c 0,0 -0.6689,0.627099 -0.6689,1.546844 v 14.339663 c 0,1.045165 1.04516,1.045165 1.04516,1.045165 z m -26.75622,-2.633815 v -12.29114 c 0,-0.459873 0.33445,-0.752519 0.33445,-0.752519 L 144.77331,9.0936835 c 0,0 0.41807,-0.3344528 0.83613,0.041807 2.96827,2.8010415 8.77939,8.1940925 12.16572,11.3713945 0.33446,0.334453 0.29265,0.752519 0.29265,0.752519 v 12.41656 c 0,0.459872 -0.45987,0.418066 -0.45987,0.418066 h -24.87493 c 0,0 -0.45987,-0.08361 -0.45987,-0.543486 z"
         id="path365" /><path
         d="m 136.4538,30.624117 h 3.34453 c 0,0 1.42142,0 1.9231,-1.379617 0.20903,-0.585293 2.17394,-6.187377 3.1355,-8.988419 0,0 0.12542,-0.459873 0.33445,-0.459873 0.0836,0 0.16723,0.12542 0.29265,0.418066 1.04516,2.968269 3.1773,9.197452 3.1773,9.197452 0.37626,1.128778 1.33781,1.212391 1.71407,1.212391 h 3.51175 c 0.58529,0 0.91975,-0.543485 0.91975,-1.045164 0,-0.50168 -0.33446,-1.045165 -0.91975,-1.045165 h -2.71743 c -0.58529,0 -0.79432,-0.543486 -0.79432,-0.543486 -1.58865,-4.598726 -4.09705,-11.914881 -4.09705,-11.914881 -0.37626,-1.045165 -0.71071,-1.421424 -1.04516,-1.421424 -0.66891,0 -1.17059,1.505037 -1.17059,1.505037 l -4.05524,11.747655 c 0,0 -0.25084,0.627099 -0.91974,0.627099 h -2.63382 c -0.58529,0 -0.91975,0.543485 -0.91975,1.045165 0,0.501679 0.33446,1.045164 0.91975,1.045164 z"
         id="path362" /><path
         d="m 167.3488,41.201151 c 0.83613,0 1.2542,-0.543485 1.2542,-1.045165 0,-0.501679 -0.41807,-1.003358 -1.2542,-1.003358 0,0 -0.29265,0 -0.45987,-0.167226 -0.16723,-0.167227 -0.16723,-0.418066 -0.16723,-0.418066 V 7.9649054 c 0,-0.7943254 -0.54348,-1.1705848 -1.04516,-1.1705848 -0.50168,0 -1.00336,0.3762594 -1.00336,1.1705848 V 40.155986 c 0,0 0.0418,0.50168 0.33445,0.752519 0.33445,0.292646 0.83613,0.292646 0.83613,0.292646 z"
         id="path359" /><path
         d="m 167.64143,39.152628 c -0.75252,0 -1.17058,0.543486 -1.17058,1.045165 0,0.501679 0.41806,1.003358 1.17058,1.003358 h 35.70284 c 0.79432,0 1.17058,-0.501679 1.17058,-1.003358 0,-0.501679 -0.37626,-1.045165 -1.17058,-1.045165 z"
         id="path356" /><path
         d="m 197.78399,9.1772967 c -0.20903,-0.2508396 -0.50168,-0.3762594 -0.75252,-0.3762594 -0.54349,0 -1.08697,0.5016792 -1.08697,1.0869716 0,0.2508391 0.0836,0.5016791 0.29265,0.7107121 2.88465,3.219108 3.2191,6.939895 3.2191,11.036942 0,5.225825 -2.04852,10.702489 -6.81447,10.702489 -4.26428,0 -5.0586,-6.02015 -5.0586,-7.776027 0,-0.668906 -0.54349,-1.045165 -1.04517,-1.045165 -0.50168,0 -1.00335,0.376259 -1.00335,1.045165 0,1.83949 -0.79433,7.776027 -5.0586,7.776027 -4.76595,0 -6.81448,-5.476664 -6.81448,-10.702489 0,-4.097047 0.25084,-7.776027 3.1355,-10.995135 0.20903,-0.209033 0.33445,-0.459873 0.33445,-0.7107125 0,-0.5434858 -0.54349,-1.0869716 -1.08697,-1.0869716 -0.25084,0 -0.50168,0.1254198 -0.71071,0.3344528 -3.30273,3.6789803 -3.7626,7.7342203 -3.7626,12.4583663 0,5.476665 2.25756,12.792819 8.90481,12.792819 2.59201,0 4.59872,-1.421424 5.81111,-4.013433 0.0836,-0.209033 0.29265,-0.627099 0.5853,0.04181 0.50168,1.170585 2.75923,3.971627 5.76931,3.971627 6.68905,0 8.9048,-7.274348 8.9048,-12.792819 0,-4.724146 -0.45987,-8.779386 -3.76259,-12.4583663 z"
         id="path353" /><path
         d="m 179.3055,13.650635 c 0,2.173943 1.50504,3.8044 3.34453,4.724145 0,2.717429 1.42142,5.476665 3.88801,5.476665 2.42479,0 3.8044,-2.801043 3.84621,-5.434858 1.71407,-0.877939 3.38633,-2.424783 3.38633,-4.765952 0,-2.006717 -1.58865,-3.6789811 -3.63717,-3.6789811 -1.17058,0 -2.34117,0.5434861 -3.59537,1.5468441 -1.25419,-1.003358 -2.46659,-1.5468441 -3.63717,-1.5468441 -2.04852,0 -3.59537,1.6304571 -3.59537,3.6789811 z m 10.82791,-1.923104 c 1.17059,0 1.8813,0.752519 1.8813,1.881297 0,1.337811 -0.91975,2.299363 -1.83949,2.884655 -0.41807,-1.379618 -1.42143,-2.675622 -2.34117,-3.762594 0.83613,-0.668905 1.63046,-1.003358 2.29936,-1.003358 z m -9.07203,1.881297 c 0,-1.128778 0.6689,-1.881297 1.83949,-1.881297 0.71071,0 1.50504,0.334453 2.34117,1.003358 -0.87794,0.877939 -1.9231,2.633816 -2.25756,3.804401 -1.00336,-0.585293 -1.9231,-1.546844 -1.9231,-2.926462 z m 3.51175,3.678981 c 0.37626,-1.379618 0.96155,-2.34117 1.96491,-3.344528 0.79433,0.919745 1.71407,1.96491 2.00672,3.344528 -0.66891,0.209033 -1.33781,0.334452 -2.00672,0.334452 -0.58529,0 -1.296,-0.125419 -1.96491,-0.334452 z m 1.96491,2.09033 c 0.66891,0 1.33781,-0.12542 2.04853,-0.292647 -0.12542,1.045165 -0.71072,3.010075 -2.04853,3.010075 -1.17058,0 -1.9231,-1.46323 -2.09033,-3.051881 0.71072,0.167226 1.42143,0.334453 2.09033,0.334453 z"
         id="path350" /></g><path
       id="path347"
       style="color:#000000;display:inline;opacity:1;fill:#000000;-inkscape-stroke:none"
       d="m 77.794434,48.572854 c -1.425636,0.02807 -2.801892,0.810944 -3.501078,2.151807 l -3.59668,6.896737 v 5.16e-4 l 2.309937,1.859318 3.86488,-7.41195 c 0.295414,-0.566513 0.927456,-0.76514 1.493966,-0.469739 L 91.359498,58.37484 80.254749,79.671214 69.204261,73.908776 c -0.0011,0.0023 -0.002,0.0049 -0.0031,0.0072 -0.136897,0.285404 -0.260534,0.597635 -0.362252,0.936377 -0.002,0.0067 -0.0042,0.01295 -0.0062,0.01964 -0.02242,0.07555 -0.04186,0.154345 -0.06201,0.232544 -0.01562,0.06086 -0.03132,0.121502 -0.04548,0.183968 -0.01499,0.06589 -0.02861,0.133336 -0.04186,0.201022 -0.01504,0.0772 -0.0287,0.155599 -0.04134,0.235127 -0.01057,0.0662 -0.02117,0.132679 -0.02997,0.200505 -0.01113,0.08618 -0.01926,0.174771 -0.02739,0.26355 -0.006,0.0658 -0.01326,0.130679 -0.01757,0.19792 -0.0095,0.149194 -0.01562,0.301104 -0.01602,0.457337 -4e-6,0.0016 3e-6,0.0031 0,0.0047 l 10.359057,5.40122 -10.359574,19.981214 v 1.52755 c 0,0.0817 -0.0041,0.16051 -0.01189,0.2372 -0.0044,0.0437 -0.01282,0.085 -0.01964,0.12712 -0.0051,0.0311 -0.0087,0.0633 -0.01499,0.0935 -0.0086,0.0412 -0.02016,0.0803 -0.03101,0.11989 -0.0084,0.0304 -0.01567,0.0615 -0.02532,0.0909 -0.01319,0.0405 -0.02894,0.0786 -0.04444,0.1173 -0.0097,0.0239 -0.01843,0.0486 -0.02894,0.0718 -0.02114,0.047 -0.0448,0.0918 -0.06925,0.13591 -0.0067,0.012 -0.01275,0.0244 -0.01964,0.0362 -0.02873,0.0493 -0.0599,0.096 -0.0925,0.1416 -0.004,0.006 -0.0078,0.0115 -0.01189,0.0171 -0.03644,0.0498 -0.07509,0.0973 -0.115756,0.14263 -1.61e-4,1.8e-4 -3.55e-4,3.4e-4 -5.16e-4,5.1e-4 -0.04209,0.0469 -0.08617,0.0913 -0.132292,0.13333 0.127844,0.15174 0.301948,0.29514 0.545703,0.41858 1.429726,0.72402 1.969389,-0.76843 1.969389,-0.76843 l 11.034468,-21.282423 13.052434,6.805786 c 1.950348,1.016997 4.400239,0.246591 5.41724,-1.703772 L 110.03278,69.361249 c 1.01701,-1.95035 0.24607,-4.400238 -1.70429,-5.41724 L 79.71008,49.020889 c -0.609483,-0.317814 -1.267628,-0.460792 -1.915646,-0.448035 z m 16.137,11.143506 13.052436,6.805786 c 0.5665,0.295407 0.76564,0.927465 0.47025,1.493966 l -10.081036,19.33267 c -0.295399,0.566495 -0.927456,0.76514 -1.493966,0.469739 L 82.826685,81.012218 Z" /><g
       aria-label="kijetesantakalu"
       transform="matrix(-3.7074546,0,0,3.7074546,457.8471,-196.6924)"
       id="text321-7"
       style="font-size:22.5778px;font-family:'linja sike 5';-inkscape-font-specification:'linja sike 5, ';white-space:pre;inline-size:18.8362;display:inline;stroke-width:0.264583"><path
         d="m 87.490503,95.30985 h 5.937961 c 0.180623,0 0.92569,-0.04516 0.92569,-0.745067 0,-0.112889 -0.02258,-0.225778 -0.06773,-0.361245 l -0.72249,-2.573869 c -0.09031,-0.31609 -0.316089,-0.451556 -0.541867,-0.451556 -0.270934,0 -0.541867,0.2032 -0.541867,0.541867 0,0.06773 0,0.135467 0.02258,0.2032 0.180622,0.677334 0.496711,1.85138 0.496711,1.85138 0.112889,0.4064 -0.316089,0.428978 -0.316089,0.428978 H 90.49335 c -0.112889,0 -0.474134,-0.02258 -0.474134,-0.451556 v -5.080005 c 0,-4.31236 1.715913,-8.331209 6.231473,-9.14401 0.06773,0 0.158045,-0.04516 0.248356,-0.04516 0.112889,0 0.225778,0.04516 0.293512,0.293511 0,0.02258 0.02258,0.158045 0.135466,0.564445 0,0 0.225778,0.745068 0.790224,1.196624 0.09031,0.06773 2.235202,1.761068 3.251203,2.596447 0.36124,0.293511 -0.0226,0.541867 -0.0226,0.541867 l -1.286933,0.857956 c 0,0 -0.745067,0.451556 -0.745067,1.354668 v 7.879653 c 0,0.361245 0.270934,0.541867 0.541867,0.541867 0.270934,0 0.564443,-0.180622 0.564443,-0.541867 v -7.202319 c 0,-0.767645 0.42898,-1.219201 0.63218,-1.354668 0.92569,-0.6096 1.60302,-1.083734 1.60302,-1.083734 0.33867,-0.225778 0.45156,-0.451556 0.45156,-0.654756 0,-0.406401 -0.45156,-0.72249 -0.45156,-0.72249 l -3.476977,-2.799647 c 0,0 -0.632178,-0.451556 -0.857956,-1.286935 -0.225778,-0.903112 -0.270934,-1.377246 -0.677334,-1.377246 h -0.112889 c -0.09031,0 -2.099736,0.02258 -4.131738,1.332091 -2.777069,1.783646 -3.905959,4.876805 -4.064004,8.015119 0,0.158044 0.02258,0.474134 -0.451556,0.474134 h -0.428978 c -2.325514,0 -3.635026,1.670757 -3.635026,3.838226 0,2.032002 1.038579,3.364092 3.070581,3.364092 z m 5.892806,-11.650145 c 0,0.6096 0.496711,1.083734 1.083734,1.083734 0.587023,0 1.061157,-0.474134 1.061157,-1.083734 0,-0.587023 -0.474134,-1.061157 -1.061157,-1.061157 -0.587023,0 -1.083734,0.474134 -1.083734,1.061157 z m 3.002847,0 c 0,0.6096 0.474134,1.083734 1.083735,1.083734 0.587023,0 1.061156,-0.474134 1.061156,-1.083734 0,-0.587023 -0.474133,-1.061157 -1.061156,-1.061157 -0.609601,0 -1.083735,0.474134 -1.083735,1.061157 z m -8.015119,10.543833 c -0.112889,0 -0.496712,-0.02258 -0.496712,-0.474134 v -3.996271 c 0,-0.519289 0.51929,-0.496711 0.51929,-0.496711 0,0 0.519289,-0.02258 0.519289,0.496711 v 3.996271 c 0,0.451556 -0.383822,0.474134 -0.496711,0.474134 z m -2.844803,-2.348091 c 0,-0.92569 0.225778,-1.806225 0.72249,-2.144892 0.04516,-0.02258 0.158044,-0.09031 0.270933,-0.09031 0.112889,0 0.225778,0.06773 0.225778,0.293512 v 3.635026 c 0,0.225778 -0.135466,0.293511 -0.293511,0.293511 -0.745067,0 -0.92569,-1.12889 -0.92569,-1.986847 z m 11.921079,2.935114 v -3.90596 c 0,-0.338667 -0.293512,-0.519289 -0.564445,-0.519289 -0.270934,0 -0.541867,0.180622 -0.541867,0.519289 v 3.90596 c 0,0.361244 0.270933,0.541867 0.541867,0.541867 0.270933,0 0.564445,-0.180623 0.564445,-0.541867 z"
         id="path344" /></g><g
       aria-label="kijetesantakalu"
       transform="matrix(3.7342847,0,0,3.7342847,-304.95696,-250.13196)"
       id="text321"
       style="font-size:22.5778px;font-family:'linja sike 5';-inkscape-font-specification:'linja sike 5, ';white-space:pre;inline-size:18.8362;display:inline;stroke-width:0.264583"><path
         d="m 87.490503,95.30985 h 5.937961 c 0.180623,0 0.92569,-0.04516 0.92569,-0.745067 0,-0.112889 -0.02258,-0.225778 -0.06773,-0.361245 l -0.72249,-2.573869 c -0.09031,-0.31609 -0.316089,-0.451556 -0.541867,-0.451556 -0.270934,0 -0.541867,0.2032 -0.541867,0.541867 0,0.06773 0,0.135467 0.02258,0.2032 0.180622,0.677334 0.496711,1.85138 0.496711,1.85138 0.112889,0.4064 -0.316089,0.428978 -0.316089,0.428978 H 90.49335 c -0.112889,0 -0.474134,-0.02258 -0.474134,-0.451556 v -5.080005 c 0,-4.31236 1.715913,-8.331209 6.231473,-9.14401 0.06773,0 0.158045,-0.04516 0.248356,-0.04516 0.112889,0 0.225778,0.04516 0.293512,0.293511 0,0.02258 0.02258,0.158045 0.135466,0.564445 0,0 0.225778,0.745068 0.790224,1.196624 0.09031,0.06773 2.235202,1.761068 3.251203,2.596447 0.36124,0.293511 -0.0226,0.541867 -0.0226,0.541867 l -1.286933,0.857956 c 0,0 -0.745067,0.451556 -0.745067,1.354668 v 7.879653 c 0,0.361245 0.270934,0.541867 0.541867,0.541867 0.270934,0 0.564443,-0.180622 0.564443,-0.541867 v -7.202319 c 0,-0.767645 0.42898,-1.219201 0.63218,-1.354668 0.92569,-0.6096 1.60302,-1.083734 1.60302,-1.083734 0.33867,-0.225778 0.45156,-0.451556 0.45156,-0.654756 0,-0.406401 -0.45156,-0.72249 -0.45156,-0.72249 l -3.476977,-2.799647 c 0,0 -0.632178,-0.451556 -0.857956,-1.286935 -0.225778,-0.903112 -0.270934,-1.377246 -0.677334,-1.377246 h -0.112889 c -0.09031,0 -2.099736,0.02258 -4.131738,1.332091 -2.777069,1.783646 -3.905959,4.876805 -4.064004,8.015119 0,0.158044 0.02258,0.474134 -0.451556,0.474134 h -0.428978 c -2.325514,0 -3.635026,1.670757 -3.635026,3.838226 0,2.032002 1.038579,3.364092 3.070581,3.364092 z m 5.892806,-11.650145 c 0,0.6096 0.496711,1.083734 1.083734,1.083734 0.587023,0 1.061157,-0.474134 1.061157,-1.083734 0,-0.587023 -0.474134,-1.061157 -1.061157,-1.061157 -0.587023,0 -1.083734,0.474134 -1.083734,1.061157 z m 3.002847,0 c 0,0.6096 0.474134,1.083734 1.083735,1.083734 0.587023,0 1.061156,-0.474134 1.061156,-1.083734 0,-0.587023 -0.474133,-1.061157 -1.061156,-1.061157 -0.609601,0 -1.083735,0.474134 -1.083735,1.061157 z m -8.015119,10.543833 c -0.112889,0 -0.496712,-0.02258 -0.496712,-0.474134 v -3.996271 c 0,-0.519289 0.51929,-0.496711 0.51929,-0.496711 0,0 0.519289,-0.02258 0.519289,0.496711 v 3.996271 c 0,0.451556 -0.383822,0.474134 -0.496711,0.474134 z m -2.844803,-2.348091 c 0,-0.92569 0.225778,-1.806225 0.72249,-2.144892 0.04516,-0.02258 0.158044,-0.09031 0.270933,-0.09031 0.112889,0 0.225778,0.06773 0.225778,0.293512 v 3.635026 c 0,0.225778 -0.135466,0.293511 -0.293511,0.293511 -0.745067,0 -0.92569,-1.12889 -0.92569,-1.986847 z m 11.921079,2.935114 v -3.90596 c 0,-0.338667 -0.293512,-0.519289 -0.564445,-0.519289 -0.270934,0 -0.541867,0.180622 -0.541867,0.519289 v 3.90596 c 0,0.361244 0.270933,0.541867 0.541867,0.541867 0.270933,0 0.564445,-0.180623 0.564445,-0.541867 z"
         id="path341" /></g></g></svg>
