<?xml version="1.0" encoding="UTF-8" standalone="no"?>
<!-- Created with Inkscape (http://www.inkscape.org/) -->

<svg
   width="14.465088mm"
   height="13.879792mm"
   viewBox="0 0 14.465089 13.879792"
   version="1.1"
   id="svg21"
   xml:space="preserve"
   sodipodi:docname="unpa.svg"
   xmlns:inkscape="http://www.inkscape.org/namespaces/inkscape"
   xmlns:sodipodi="http://sodipodi.sourceforge.net/DTD/sodipodi-0.dtd"
   xmlns="http://www.w3.org/2000/svg"
   xmlns:svg="http://www.w3.org/2000/svg"><sodipodi:namedview
     id="namedview19"
     pagecolor="#ffffff"
     bordercolor="#666666"
     borderopacity="1.0"
     inkscape:showpageshadow="2"
     inkscape:pageopacity="0.0"
     inkscape:pagecheckerboard="0"
     inkscape:deskcolor="#d1d1d1"
     inkscape:document-units="mm"
     showgrid="false" /><defs
     id="defs18" /><g
     id="layer1"
     style="fill:#000000"
     transform="translate(-179.3055,-9.9716541)"><path
       d="m 179.3055,13.650635 c 0,2.173943 1.50504,3.8044 3.34453,4.724145 0,2.717429 1.42142,5.476665 3.88801,5.476665 2.42479,0 3.8044,-2.801043 3.84621,-5.434858 1.71407,-0.877939 3.38633,-2.424783 3.38633,-4.765952 0,-2.006717 -1.58865,-3.6789811 -3.63717,-3.6789811 -1.17058,0 -2.34117,0.5434861 -3.59537,1.5468441 -1.25419,-1.003358 -2.46659,-1.5468441 -3.63717,-1.5468441 -2.04852,0 -3.59537,1.6304571 -3.59537,3.6789811 z m 10.82791,-1.923104 c 1.17059,0 1.8813,0.752519 1.8813,1.881297 0,1.337811 -0.91975,2.299363 -1.83949,2.884655 -0.41807,-1.379618 -1.42143,-2.675622 -2.34117,-3.762594 0.83613,-0.668905 1.63046,-1.003358 2.29936,-1.003358 z m -9.07203,1.881297 c 0,-1.128778 0.6689,-1.881297 1.83949,-1.881297 0.71071,0 1.50504,0.334453 2.34117,1.003358 -0.87794,0.877939 -1.9231,2.633816 -2.25756,3.804401 -1.00336,-0.585293 -1.9231,-1.546844 -1.9231,-2.926462 z m 3.51175,3.678981 c 0.37626,-1.379618 0.96155,-2.34117 1.96491,-3.344528 0.79433,0.919745 1.71407,1.96491 2.00672,3.344528 -0.66891,0.209033 -1.33781,0.334452 -2.00672,0.334452 -0.58529,0 -1.296,-0.125419 -1.96491,-0.334452 z m 1.96491,2.09033 c 0.66891,0 1.33781,-0.12542 2.04853,-0.292647 -0.12542,1.045165 -0.71072,3.010075 -2.04853,3.010075 -1.17058,0 -1.9231,-1.46323 -2.09033,-3.051881 0.71072,0.167226 1.42143,0.334453 2.09033,0.334453 z"
       id="path350"
       style="font-size:41.8066px;font-family:'linja sike 5';-inkscape-font-specification:'linja sike 5, ';stroke-width:0.48992" /></g></svg>
